<svg width="16" height="16" viewBox="0 0 30 32" fill="none" xmlns="http://www.w3.org/2000/svg">
<path d="M22.0179 20.5591C23.8335 17.938 24.6467 14.6884 24.2948 11.4602C23.9429 8.23206 22.4518 5.26352 20.12 3.14849C17.7882 1.03346 14.7875 -0.0720914 11.7183 0.0530265C8.64904 0.178144 5.73765 1.5247 3.56656 3.8233C1.39547 6.1219 0.124778 9.20302 0.00871225 12.4502C-0.107354 15.6975 0.939763 18.8713 2.94057 21.3368C4.94138 23.8023 7.74833 25.3777 10.7998 25.7477C13.8514 26.1176 16.9224 25.255 19.3986 23.3323H19.3967C19.4529 23.4117 19.5129 23.4871 19.5804 23.5605L26.7992 31.1977C27.1508 31.5699 27.6277 31.7791 28.1251 31.7793C28.6225 31.7795 29.0995 31.5706 29.4514 31.1987C29.8032 30.8267 30.0009 30.3221 30.0011 29.7959C30.0013 29.2697 29.8039 28.765 29.4523 28.3927L22.2336 20.7555C22.1665 20.6837 22.0944 20.6194 22.0179 20.5591ZM22.5017 12.9338C22.5017 14.3666 22.2349 15.7853 21.7167 17.109C21.1984 18.4327 20.4388 19.6355 19.4812 20.6486C18.5236 21.6617 17.3868 22.4653 16.1356 23.0136C14.8844 23.5619 13.5434 23.8441 12.1892 23.8441C10.8349 23.8441 9.49393 23.5619 8.24276 23.0136C6.99159 22.4653 5.85475 21.6617 4.89714 20.6486C3.93954 19.6355 3.17993 18.4327 2.66168 17.109C2.14342 15.7853 1.87668 14.3666 1.87668 12.9338C1.87668 10.0402 2.96318 7.26512 4.89715 5.21904C6.83111 3.17296 9.45414 2.02348 12.1892 2.02348C14.9242 2.02348 17.5473 3.17296 19.4812 5.21904C21.4152 7.26512 22.5017 10.0402 22.5017 12.9338Z" fill="black"/>
</svg>
